<svg version="1.0" xmlns="http://www.w3.org/2000/svg" width="3158.667" height="1624" viewBox="0 0 2369 1218"><path d="M421.5.7c-27.2 3.5-49.7 14-65 30.4-31.8 34-49.2 75.9-49.6 120l-.1 12.6-11.2-2.4c-9.3-2-28.3-6.8-40-10.1-2.6-.7-3-1.5-5.2-10.2-2.5-10.1-8.2-22.9-13.5-30.8-4.7-6.8-16.5-18.7-23.4-23.7-20.2-14.3-46.8-22.8-80-25.6-17.5-1.4-32.1-.6-38.4 2.2-5.9 2.6-11.6 8.1-14.9 14.4-2.1 4-2.7 6.8-3 14.2l-.4 9.2-28.2.3c-31.7.3-32.3.5-40.1 8.3-6.4 6.4-8 10.5-8 21s1.6 14.6 8 21c7.8 7.8 8.4 8 40.3 8.3l28.2.3V189H22.3l-6.1 3.1c-6.9 3.4-10.4 7.1-13.8 14.4-2.9 6-3.2 15.8-.8 22.8 2.1 6.1 8.2 12.9 14.6 16.1l5.2 2.6h55.4l.3 11.7c.4 10.5.7 12.4 3.2 17.5 3.2 6.4 8 11.1 14.6 14.2 5.7 2.6 16.3 2.6 41.6.2 45.3-4.5 66.1-11.7 84.8-29.5 12.1-11.5 20.7-25.6 26.3-42.6 1.7-5.4 2.7-7 4.1-6.9 1 0 9.2 1.8 18.3 3.8 9.1 2.1 23.8 5 32.8 6.5l16.4 2.7 3.7 8.9c10.3 25.2 27.7 50.7 42.6 62.9 18.8 15.3 56.3 27 96.8 30.2l8.8.6 6.5 13c16.1 32.2 35.1 56 53 66.6 19.9 11.8 46.4 17.9 82 18.9l20 .6 11.1 20.1c14.2 25.5 17.6 32.5 20.2 41 2.7 8.9 2.7 13.7-.5 23.8-6.8 21.8-21.1 39.6-39.7 49.4-15.5 8.1-30.6 11.4-52.5 11.4-30.8 0-58.8-6.7-104.7-25-25.6-10.2-36.6-13.8-52.5-17.3-20.4-4.5-27.2-5.2-53-5.2-20.9.1-26.3.4-36.7 2.3-55.6 10.1-99.5 37.6-126.5 79.2-33.3 51.2-40.9 118.9-20.4 180.5 20.7 61.9 61.6 107.1 114.8 126.9 56.8 21.1 127 15.1 199.8-17 8-3.5 19-8.9 24.4-11.9 5.5-3 10.1-5.3 10.4-5.1.2.3-5.3 29.2-12.2 64.3-8.3 42.2-12.6 66-12.6 70.3 0 12.7 9.6 26 21.3 29.5 8.6 2.6 166.7 26.7 170.7 26 7.9-1.4 13.2-3.8 18.4-8.6 7.5-6.8 10.1-12.9 10.1-23.9 0-9.9-2-15.2-8.1-22-7.5-8.3-7.4-8.3-77.3-19.2-34.9-5.4-63.6-10-63.8-10.2-.2-.2 11.4-60.2 25.9-133.4l26.2-132.9 13.1-3.8c182.3-51.9 381.2-87.3 572.5-101.9 69.6-5.3 100.2-6.6 174.5-7.3 61.6-.5 102.7.3 135.2 2.7 6.7.5 20.2 1.4 30 2 77.5 4.6 151.6 30.7 225.8 79.6 41.6 27.3 85.8 65.2 116.1 99.6 12.9 14.6 15.4 15.8 40.9 19.3 125 17.2 253.6 45.1 318.5 69 25.1 9.2 26.6 10 31.6 17.1 11 15.4 17.6 39.6 20.5 74.8 1.1 13.8.9 72.9-.2 74-.3.3-35.3 1.2-77.9 2-96.3 1.9-92.4 1.7-99.3 4.9-6.5 3-12.7 9-15.9 15.5-1.9 3.9-2.3 6.3-2.3 14.2 0 8.4.3 10.1 2.7 14.5 3.2 6 8.7 11.4 14.8 14.6 4.1 2.2 6 2.4 20.5 2.7 8.8.1 56.1-.6 105.1-1.6l89-1.9 5.6-2.5c13.2-6.1 18.4-14.5 20.5-33.1 2-17.2 2.9-81.6 1.4-100.3-4.9-62.1-19.2-104.7-43.8-130.5-8.3-8.6-11.6-10.7-30.3-18.2-53.7-21.8-140-43.8-247.5-63.2-24.9-4.5-75.7-12.7-93-15l-13-1.8-16.8-16.9c-35.4-35.5-71.2-64.9-110.9-91.1-77.6-51.3-159.1-81.7-238.9-89.1-15.6-1.4-23.4-2-68.9-4.8-26.6-1.7-166.9-1.7-201.5 0-100.2 4.8-181.1 12.1-270.5 24.3-142.4 19.3-277.5 47.6-419 87.5-29.5 8.4-33 9.7-38.4 14.4-8.1 7.1-8.4 8.3-20.2 68.2l-10.9 55-9.5 8.2c-33.5 29-72.1 50.3-111.1 61.5-26.4 7.6-54.3 10-76.7 6.7-51.9-7.7-89.1-39.9-111.6-96.6-8.3-21.1-11.9-39-11.9-59.5.1-35.2 12.8-64.9 39.3-91.5 28.8-29.1 66.3-42.8 106.5-39 22.6 2.1 38.8 6.4 69 18.5 34.1 13.6 56.5 20.2 84.8 24.7 18.8 3 55.3 3.3 71.8.5 38.7-6.5 68.7-20.9 93-44.7 19.2-18.8 33.6-46.2 36.9-70.2 3.3-23.1-5.3-53.4-24.9-87.7-2.3-4.1-4-7.5-3.9-7.5.2-.1 5-1.8 10.8-3.7 11.4-3.7 31.4-13.1 42.5-19.9 33.3-20.4 58.7-51.3 67.7-82.5 2-7 2.3-10.2 2.3-25.5 0-19.3-.8-23.6-6.9-38.6-6.5-15.9-20.2-33.6-32.9-42.3-17.4-11.9-39.1-18.1-63.7-18.1-11.6 0-23.6 1.1-27.2 2.5-1.2.5-1.6-.8-2.1-7-2.3-26.3-17.1-54.1-38.2-71.4-13-10.6-25.9-16.9-43.5-21.2-8-1.9-12.3-2.3-27-2.3-9.6-.1-20.1.3-23.2.7-5.5.8-5.7.7-6.2-1.5-4.7-24.5-12.7-40.5-27.8-55.7-15.4-15.5-34.9-24.8-60-28.5-9.6-1.5-31.4-1.9-39.3-.9zm35.7 60c16.5 5.7 31.1 16.3 34.4 24.9 3.3 8.8.3 20.7-9.3 36.6-17.4 29-46.1 44.1-90.8 47.8-6.6.5-15.4 1-19.6 1h-7.6l-.7-3.1c-1.7-8.9.8-29.9 5.4-43.9 6-18.3 17.8-37.6 31.5-51.6 12-12.2 20.4-15.5 37.5-15 8.6.2 12.1.8 19.2 3.3zM152 124.1c24.5 6.5 39.2 21.3 42.1 42.4 2 14.2-.1 34.9-4.4 43.1-2.2 4.2-8.6 9.8-14.8 13-6.4 3.2-21 7-30.7 8l-7.2.7V120.9l3.8.6c2 .4 7.1 1.6 11.2 2.6zm437.4 21.5c11.8 3.9 26.6 12.9 33.3 20.3 3.9 4.3 7.4 12.1 8 17.6 1.9 18.1-18.3 47.6-44 64.3-18.6 12-47.1 21.7-70.2 23.9l-6.2.6-1.6-7.9c-4.5-21.4-5.3-41-2.3-56.9 5.4-27.9 24.1-52.6 46.8-61.6 9.9-3.9 24.8-4 36.2-.3zm-141 88.1c.3 8.2 1.5 19.5 2.5 25.3 1 5.8 1.7 10.7 1.5 10.9-.6.7-12.6-2.1-21.8-5.1-14.2-4.6-22-9.2-31.1-18.3-4.4-4.5-9.5-10.2-11.3-12.7l-3.2-4.6 6.7-.7c22.7-2 45.8-5.7 52.6-8.5 1.2-.5 2.5-.9 2.8-.9.3-.1.9 6.5 1.3 14.6zm280.8 11.7c14.5 5.1 29.9 17.1 33.3 26.1 3.7 9.6.3 22.1-10.3 37.6-17 25.1-40.4 42.3-71.9 52.9l-11.8 4-2.7-5.8c-4-8.3-9.4-25.5-10.8-34.2-3.3-19.8 2.6-39.3 18.1-59.7 16.8-22 34.1-28.5 56.1-20.9zM597.9 340c.7 3.6 2.5 11.5 4.2 17.7 1.6 6.2 2.9 11.5 2.9 11.8 0 2.2-27-4.9-37-9.7-6.9-3.3-10.1-5.6-17-12.7-7.4-7.4-17.9-20.8-16.8-21.5.1-.1 6.6-1.5 14.3-3 12.3-2.4 35.2-9.2 44-13l3-1.3.6 12.6c.4 6.9 1.2 15.5 1.8 19.1z"/><path d="M1898 884c-25.5 3.5-51.9 14.2-74 29.8-12.2 8.6-33.6 30-42.2 42.2-8.1 11.4-18.7 32.1-22.7 44.5-13 39.5-9.7 81.6 9.2 119.2 4.8 9.5 16.1 26.2 24 35.4 22 25.7 53.4 45.7 85.3 54.5 45.6 12.4 94.5 2.5 135.2-27.5 11.6-8.5 31.1-28.4 39.5-40.1 12.8-18 24-43.9 28.4-65.5 2.7-13.6 2.4-43.4-.5-57.1-4.6-21.4-13.2-41.3-26.3-61-10.3-15.4-31.2-36.3-46.9-46.7-19.3-12.7-39.3-21.4-59.9-25.8-11-2.3-38.3-3.4-49.1-1.9zm44 66.5c18.7 4.1 34.3 12.6 47.6 25.9 13.6 13.6 21.9 29.1 26.1 48.6 2.4 11.4 2.5 36.3.1 47.1-8.9 40.3-35.2 66.6-75.4 75.5-11.7 2.6-35.9 2.4-48.1-.4-43.4-9.9-70.7-41.3-75.5-86.8-5.3-50.6 22.4-94.7 67.7-107.9 16-4.7 41.3-5.5 57.5-2z"/><path d="M1905 1007.6c-15.5 4.2-27.3 17.6-30.2 34.4-4.9 28.7 20.5 54.1 49.2 49.2 22.4-3.8 37.5-23 35.7-45.7-2.1-27.4-27.7-45.1-54.7-37.9zM907.5 886.9c-19.7 2.3-36.6 7.4-55 16.6-16.4 8.2-28.9 17.1-42.8 30.5-37.6 36.1-55.8 81-52.6 129.2 3 44 26.4 87.4 63.2 117.1 21.9 17.8 44.6 28.8 71.9 34.9 8.9 2 13 2.3 30.3 2.3s21.4-.3 30.3-2.3c24.9-5.6 46.5-15.5 66.7-30.7 33.4-25.2 57.3-62.2 66.1-102.5 1.5-6.9 1.9-12.7 1.9-30 0-19.7-.3-22.4-2.7-32.5-7.8-32.8-24-60.9-49-85-14.3-13.9-26.8-22.8-43.3-31-15.1-7.5-27-11.6-41.9-14.4-12.1-2.4-32.6-3.4-43.1-2.2zm37.8 66.7c20.8 3.9 38 13.4 52.2 28.6 10.9 11.7 18.1 25.1 22.6 42.3 2.7 10.3 3.7 33.7 1.9 45.6-5.9 40.5-32.7 70.1-72.8 80.2-7.4 1.8-11.4 2.1-27.2 2.1-16.7 0-19.4-.3-28-2.6-21.7-5.8-39.5-17.3-51.7-33.1-9.7-12.5-16.9-29.9-19.3-46.5-1.9-12.9-.8-35.5 2.3-47.3 10.7-40.8 43.2-67.2 87.7-71.3 7.1-.6 23.8.4 32.3 2z"/><path d="M913 1010.4c-21.8 4.8-35.6 25-32.9 47.9 1.1 8.7 4.8 16.7 11 23.2 8.9 9.4 18.5 13.5 31.6 13.5 16.7 0 31.4-9.2 38.9-24.5 2.7-5.6 2.9-6.8 2.9-18 0-11.4-.2-12.3-3.2-18.7-5.8-12.2-17.5-21.2-31.2-23.8-6.7-1.2-10.1-1.2-17.1.4zM1149.3 1044.4c-9.4 3-17.9 11.1-21 19.9-2.4 7.1-2.2 17.8.5 23.9 3.8 8.7 12.6 16.3 21.7 18.9 3.3 1 486.8 6.2 530.5 5.7l27.5-.3 5.3-2.9c18.4-10.2 22.4-34.8 8.3-50.9-1.8-2-6.3-5.1-9.9-6.9l-6.7-3.3-21-.3c-31.9-.4-525.6-5.2-528.5-5.1-1.4 0-4.4.6-6.7 1.3z"/></svg>